<svg xmlns="http://www.w3.org/2000/svg" version="1.1" xmlns:xlink="http://www.w3.org/1999/xlink" xmlns:svgjs="http://svgjs.dev/svgjs" width="1440" height="560" preserveAspectRatio="none" viewBox="0 0 1440 560"><g mask="url(&quot;#SvgjsMask1054&quot;)" fill="none"><rect width="1440" height="560" x="0" y="0" fill="#0e2a47"></rect><path d="M778.8168493300782 74.27250214680657L693.9094902785104 156.11034994069396 792.4915358315804 186.2499059072228z" fill="rgba(28, 83, 142, 0.4)" class="triangle-float3"></path><path d="M1292.967,466.008C1323.579,466.215,1354.669,453.096,1368.673,425.874C1381.816,400.324,1368.774,371.575,1354.318,346.744C1339.988,322.129,1321.444,296.373,1292.967,295.834C1263.85,295.283,1241.94,319.078,1227.459,344.344C1213.077,369.438,1205.304,399.394,1219.016,424.86C1233.349,451.48,1262.734,465.803,1292.967,466.008" fill="rgba(28, 83, 142, 0.4)" class="triangle-float2"></path><path d="M781.215,291.877C803.78,293.042,830.572,295.69,842.574,276.546C854.954,256.799,842.967,232.378,831.088,212.326C819.52,192.798,803.91,173.284,781.215,172.971C758.128,172.652,739.625,190.469,728.898,210.915C718.969,229.842,718.328,252.78,729.928,270.731C740.685,287.378,761.421,290.855,781.215,291.877" fill="rgba(28, 83, 142, 0.4)" class="triangle-float1"></path><path d="M72.79439400555997 189.36494394767425L-46.58902972820104 239.90598026285176 42.71359300338973 309.67683581239567z" fill="rgba(28, 83, 142, 0.4)" class="triangle-float3"></path><path d="M633.9476453571264-71.27076477219458L520.9400936148661 4.95379134547116 597.1646497325319 117.96134308773142 710.1722014747921 41.73678697006568z" fill="rgba(28, 83, 142, 0.4)" class="triangle-float3"></path><path d="M929.7391852174125 62.068437815469494L938.1983863243452 226.4774057978682 1060.2404840296501 150.21703929909933z" fill="rgba(28, 83, 142, 0.4)" class="triangle-float1"></path><path d="M169.92827613928404 363.11032109695867L155.24117644043488 446.40500260195466 238.53585794543085 461.09210230080384 253.22295764428003 377.79742079580785z" fill="rgba(28, 83, 142, 0.4)" class="triangle-float2"></path><path d="M106.03754127147369 399.04987671760716L34.09055614541539 296.2989333187225-68.66038725346925 368.24591844478084 3.2865978725890415 470.99686184366544z" fill="rgba(28, 83, 142, 0.4)" class="triangle-float1"></path><path d="M311.8585686780634 297.398161735649L338.3586202121409 173.30685404735974 232.28410849718884 205.73708679936672z" fill="rgba(28, 83, 142, 0.4)" class="triangle-float1"></path><path d="M1107.3240800055094 80.54942113232468L1226.0590741400727 128.5214726870718 1274.0311256948198 9.786478552508441 1155.2961315602565-38.18557300223867z" fill="rgba(28, 83, 142, 0.4)" class="triangle-float2"></path><path d="M1077.711,267.668C1095.878,267.357,1108.43,251.868,1117.697,236.239C1127.221,220.176,1135.813,201.166,1126.858,184.779C1117.653,167.935,1096.904,163.375,1077.711,163.07C1057.82,162.754,1035.62,165.881,1025.782,183.172C1016.012,200.344,1024.934,220.82,1035.279,237.652C1045.002,253.472,1059.145,267.986,1077.711,267.668" fill="rgba(28, 83, 142, 0.4)" class="triangle-float3"></path><path d="M1334.775,482.027C1385.49,480.645,1429.735,449.99,1454.549,405.738C1478.799,362.492,1477.086,311.532,1455.37,266.96C1430.136,215.168,1392.353,161.897,1334.775,159.905C1274.893,157.833,1226.485,204.943,1198.801,258.082C1173.287,307.056,1174.472,365.388,1203.132,412.59C1230.729,458.041,1281.622,483.476,1334.775,482.027" fill="rgba(28, 83, 142, 0.4)" class="triangle-float2"></path></g><defs><mask id="SvgjsMask1054"><rect width="1440" height="560" fill="#ffffff"></rect></mask><style>
                @keyframes float1 {
                    0%{transform: translate(0, 0)}
                    50%{transform: translate(-10px, 0)}
                    100%{transform: translate(0, 0)}
                }

                .triangle-float1 {
                    animation: float1 5s infinite;
                }

                @keyframes float2 {
                    0%{transform: translate(0, 0)}
                    50%{transform: translate(-5px, -5px)}
                    100%{transform: translate(0, 0)}
                }

                .triangle-float2 {
                    animation: float2 4s infinite;
                }

                @keyframes float3 {
                    0%{transform: translate(0, 0)}
                    50%{transform: translate(0, -10px)}
                    100%{transform: translate(0, 0)}
                }

                .triangle-float3 {
                    animation: float3 6s infinite;
                }
            </style></defs></svg>